<?xml version="1.0" encoding="UTF-8" standalone="no"?>
<!-- Created with Inkscape (http://www.inkscape.org/) -->

<svg
   version="1.1"
   id="svg1"
   width="793.56775"
   height="307.14978"
   viewBox="0 0 793.56774 307.14978"
   xmlns="http://www.w3.org/2000/svg"
   xmlns:svg="http://www.w3.org/2000/svg">
  <defs
     id="defs1">
    <clipPath
       clipPathUnits="userSpaceOnUse"
       id="clipPath113">
      <path
         d="M 0,595.28 H 841.89 V 0 H 0 Z"
         transform="translate(-122.07908,-276.28611)"
         id="path113" />
    </clipPath>
    <clipPath
       clipPathUnits="userSpaceOnUse"
       id="clipPath115">
      <path
         d="M 0,595.28 H 841.89 V 0 H 0 Z"
         transform="translate(-188.36618,-296.09171)"
         id="path115" />
    </clipPath>
    <clipPath
       clipPathUnits="userSpaceOnUse"
       id="clipPath117">
      <path
         d="M 0,595.28 H 841.89 V 0 H 0 Z"
         transform="translate(-260.02343,-274.78901)"
         id="path117" />
    </clipPath>
    <clipPath
       clipPathUnits="userSpaceOnUse"
       id="clipPath119">
      <path
         d="M 0,595.28 H 841.89 V 0 H 0 Z"
         transform="translate(-299.99018,-278.31051)"
         id="path119" />
    </clipPath>
    <clipPath
       clipPathUnits="userSpaceOnUse"
       id="clipPath121">
      <path
         d="M 0,595.28 H 841.89 V 0 H 0 Z"
         transform="translate(-360.20311,-280.95111)"
         id="path121" />
    </clipPath>
    <clipPath
       clipPathUnits="userSpaceOnUse"
       id="clipPath123">
      <path
         d="M 0,595.28 H 841.89 V 0 H 0 Z"
         transform="translate(-426.66601,-271.62101)"
         id="path123" />
    </clipPath>
    <clipPath
       clipPathUnits="userSpaceOnUse"
       id="clipPath125">
      <path
         d="M 0,595.28 H 841.89 V 0 H 0 Z"
         transform="translate(-452.98831,-276.28611)"
         id="path125" />
    </clipPath>
    <clipPath
       clipPathUnits="userSpaceOnUse"
       id="clipPath127">
      <path
         d="M 0,595.28 H 841.89 V 0 H 0 Z"
         transform="translate(-536.61624,-274.78901)"
         id="path127" />
    </clipPath>
    <clipPath
       clipPathUnits="userSpaceOnUse"
       id="clipPath129">
      <path
         d="M 0,595.28 H 841.89 V 0 H 0 Z"
         transform="translate(-576.58404,-278.31051)"
         id="path129" />
    </clipPath>
    <clipPath
       clipPathUnits="userSpaceOnUse"
       id="clipPath131">
      <path
         d="M 0,595.28 H 841.89 V 0 H 0 Z"
         transform="translate(-646.03914,-271.62101)"
         id="path131" />
    </clipPath>
    <clipPath
       clipPathUnits="userSpaceOnUse"
       id="clipPath133">
      <path
         d="M 0,595.28 H 841.89 V 0 H 0 Z"
         transform="translate(-703.96292,-274.26171)"
         id="path133" />
    </clipPath>
    <clipPath
       clipPathUnits="userSpaceOnUse"
       id="clipPath135">
      <path
         d="M 0,595.28 H 841.89 V 0 H 0 Z"
         transform="translate(-221.88181,-205.58391)"
         id="path135" />
    </clipPath>
    <clipPath
       clipPathUnits="userSpaceOnUse"
       id="clipPath137">
      <path
         d="M 0,595.28 H 841.89 V 0 H 0 Z"
         transform="translate(-262.62593,-198.8535)"
         id="path137" />
    </clipPath>
    <clipPath
       clipPathUnits="userSpaceOnUse"
       id="clipPath139">
      <path
         d="M 0,595.28 H 841.89 V 0 H 0 Z"
         transform="translate(-287.10151,-204.61521)"
         id="path139" />
    </clipPath>
    <clipPath
       clipPathUnits="userSpaceOnUse"
       id="clipPath141">
      <path
         d="M 0,595.28 H 841.89 V 0 H 0 Z"
         transform="translate(-313.00388,-204.9726)"
         id="path141" />
    </clipPath>
    <clipPath
       clipPathUnits="userSpaceOnUse"
       id="clipPath143">
      <path
         d="M 0,595.28 H 841.89 V 0 H 0 Z"
         transform="translate(-333.50288,-194.4668)"
         id="path143" />
    </clipPath>
    <clipPath
       clipPathUnits="userSpaceOnUse"
       id="clipPath145">
      <path
         d="M 0,595.28 H 841.89 V 0 H 0 Z"
         id="path145" />
    </clipPath>
    <clipPath
       clipPathUnits="userSpaceOnUse"
       id="clipPath147">
      <path
         d="M 0,595.28 H 841.89 V 0 H 0 Z"
         transform="translate(-375.92671,-204.8193)"
         id="path147" />
    </clipPath>
    <clipPath
       clipPathUnits="userSpaceOnUse"
       id="clipPath149">
      <path
         d="M 0,595.28 H 841.89 V 0 H 0 Z"
         transform="translate(-411.77154,-194.4668)"
         id="path149" />
    </clipPath>
    <clipPath
       clipPathUnits="userSpaceOnUse"
       id="clipPath151">
      <path
         d="M 0,595.28 H 841.89 V 0 H 0 Z"
         transform="translate(-443.28414,-204.8193)"
         id="path151" />
    </clipPath>
    <clipPath
       clipPathUnits="userSpaceOnUse"
       id="clipPath153">
      <path
         d="M 0,595.28 H 841.89 V 0 H 0 Z"
         transform="translate(-460.62009,-192.4277)"
         id="path153" />
    </clipPath>
    <clipPath
       clipPathUnits="userSpaceOnUse"
       id="clipPath155">
      <path
         d="M 0,595.28 H 841.89 V 0 H 0 Z"
         transform="translate(-509.31639,-204.8193)"
         id="path155" />
    </clipPath>
    <clipPath
       clipPathUnits="userSpaceOnUse"
       id="clipPath157">
      <path
         d="M 0,595.28 H 841.89 V 0 H 0 Z"
         transform="translate(-520.58401,-213.59081)"
         id="path157" />
    </clipPath>
    <clipPath
       clipPathUnits="userSpaceOnUse"
       id="clipPath159">
      <path
         d="M 0,595.28 H 841.89 V 0 H 0 Z"
         transform="translate(-554.54491,-192.4277)"
         id="path159" />
    </clipPath>
    <clipPath
       clipPathUnits="userSpaceOnUse"
       id="clipPath161">
      <path
         d="M 0,595.28 H 841.89 V 0 H 0 Z"
         id="path161" />
    </clipPath>
    <clipPath
       clipPathUnits="userSpaceOnUse"
       id="clipPath163">
      <path
         d="M 0,595.28 H 841.89 V 0 H 0 Z"
         transform="translate(-589.98144,-208.54191)"
         id="path163" />
    </clipPath>
    <clipPath
       clipPathUnits="userSpaceOnUse"
       id="clipPath165">
      <path
         d="M 0,595.28 H 841.89 V 0 H 0 Z"
         transform="translate(-614.40429,-210.22461)"
         id="path165" />
    </clipPath>
    <clipPath
       clipPathUnits="userSpaceOnUse"
       id="clipPath167">
      <path
         d="M 0,595.28 H 841.89 V 0 H 0 Z"
         transform="translate(-295.88183,-395.49071)"
         id="path167" />
    </clipPath>
    <clipPath
       clipPathUnits="userSpaceOnUse"
       id="clipPath169">
      <path
         d="M 0,595.28 H 841.89 V 0 H 0 Z"
         transform="translate(-268.81148,-409.77191)"
         id="path169" />
    </clipPath>
    <clipPath
       clipPathUnits="userSpaceOnUse"
       id="clipPath171">
      <path
         d="M 0,595.28 H 841.89 V 0 H 0 Z"
         transform="translate(-266.58098,-375.10591)"
         id="path171" />
    </clipPath>
    <clipPath
       clipPathUnits="userSpaceOnUse"
       id="clipPath173">
      <path
         d="M 0,595.28 H 841.89 V 0 H 0 Z"
         transform="translate(-238.59661,-390.85001)"
         id="path173" />
    </clipPath>
    <clipPath
       clipPathUnits="userSpaceOnUse"
       id="clipPath175">
      <path
         d="M 0,595.28 H 841.89 V 0 H 0 Z"
         transform="translate(-262.84471,-394.17821)"
         id="path175" />
    </clipPath>
    <clipPath
       clipPathUnits="userSpaceOnUse"
       id="clipPath177">
      <path
         d="M 0,595.28 H 841.89 V 0 H 0 Z"
         transform="translate(-402.23919,-395.49071)"
         id="path177" />
    </clipPath>
    <clipPath
       clipPathUnits="userSpaceOnUse"
       id="clipPath179">
      <path
         d="M 0,595.28 H 841.89 V 0 H 0 Z"
         transform="translate(-375.17093,-409.77191)"
         id="path179" />
    </clipPath>
    <clipPath
       clipPathUnits="userSpaceOnUse"
       id="clipPath181">
      <path
         d="M 0,595.28 H 841.89 V 0 H 0 Z"
         transform="translate(-372.93841,-375.10591)"
         id="path181" />
    </clipPath>
    <clipPath
       clipPathUnits="userSpaceOnUse"
       id="clipPath183">
      <path
         d="M 0,595.28 H 841.89 V 0 H 0 Z"
         transform="translate(-344.95411,-390.85001)"
         id="path183" />
    </clipPath>
    <clipPath
       clipPathUnits="userSpaceOnUse"
       id="clipPath185">
      <path
         d="M 0,595.28 H 841.89 V 0 H 0 Z"
         transform="translate(-369.20798,-394.17821)"
         id="path185" />
    </clipPath>
    <clipPath
       clipPathUnits="userSpaceOnUse"
       id="clipPath187">
      <path
         d="M 0,595.28 H 841.89 V 0 H 0 Z"
         transform="translate(-508.59864,-395.49071)"
         id="path187" />
    </clipPath>
    <clipPath
       clipPathUnits="userSpaceOnUse"
       id="clipPath189">
      <path
         d="M 0,595.28 H 841.89 V 0 H 0 Z"
         transform="translate(-481.53219,-409.77191)"
         id="path189" />
    </clipPath>
    <clipPath
       clipPathUnits="userSpaceOnUse"
       id="clipPath191">
      <path
         d="M 0,595.28 H 841.89 V 0 H 0 Z"
         transform="translate(-479.29779,-375.10591)"
         id="path191" />
    </clipPath>
    <clipPath
       clipPathUnits="userSpaceOnUse"
       id="clipPath193">
      <path
         d="M 0,595.28 H 841.89 V 0 H 0 Z"
         transform="translate(-451.31544,-390.85001)"
         id="path193" />
    </clipPath>
    <clipPath
       clipPathUnits="userSpaceOnUse"
       id="clipPath195">
      <path
         d="M 0,595.28 H 841.89 V 0 H 0 Z"
         transform="translate(-475.56541,-394.17821)"
         id="path195" />
    </clipPath>
    <clipPath
       clipPathUnits="userSpaceOnUse"
       id="clipPath197">
      <path
         d="M 0,595.28 H 841.89 V 0 H 0 Z"
         transform="translate(-614.96192,-395.49071)"
         id="path197" />
    </clipPath>
    <clipPath
       clipPathUnits="userSpaceOnUse"
       id="clipPath199">
      <path
         d="M 0,595.28 H 841.89 V 0 H 0 Z"
         transform="translate(-587.89164,-409.77191)"
         id="path199" />
    </clipPath>
    <clipPath
       clipPathUnits="userSpaceOnUse"
       id="clipPath201">
      <path
         d="M 0,595.28 H 841.89 V 0 H 0 Z"
         transform="translate(-585.66114,-375.10591)"
         id="path201" />
    </clipPath>
    <clipPath
       clipPathUnits="userSpaceOnUse"
       id="clipPath203">
      <path
         d="M 0,595.28 H 841.89 V 0 H 0 Z"
         transform="translate(-557.67684,-390.85001)"
         id="path203" />
    </clipPath>
    <clipPath
       clipPathUnits="userSpaceOnUse"
       id="clipPath205">
      <path
         d="M 0,595.28 H 841.89 V 0 H 0 Z"
         transform="translate(-581.92479,-394.17821)"
         id="path205" />
    </clipPath>
  </defs>
  <g
     id="layer-MC0"
     transform="translate(-1305.2918,-242.97339)">
    <path
       id="path112"
       d="m 0,0 c 0,5.81 1.232,21.391 22.095,21.391 18.75,0 21.655,-12.588 22.007,-19.367 0.087,-1.232 -0.705,-2.201 -1.937,-2.464 l -9.771,-2.202 c -1.849,-0.351 -3.257,0.881 -3.521,2.73 -0.44,3.873 -2.024,6.162 -6.778,6.162 -6.514,0 -6.954,-4.138 -6.954,-10.915 v -12.677 c 0,-6.778 0.44,-10.915 6.954,-10.915 4.842,0 6.162,2.289 6.69,6.338 0.264,1.848 1.672,2.992 3.433,2.553 l 9.947,-2.201 c 1.232,-0.264 2.024,-1.233 1.937,-2.553 C 43.75,-30.81 40.845,-43.397 22.095,-43.397 1.232,-43.397 0,-27.817 0,-22.007 Z"
       style="fill:#00ad9c;fill-opacity:1;fill-rule:nonzero;stroke:none"
       transform="matrix(1.3333333,0,0,-1.3333333,1305.2921,425.3252)"
       clip-path="url(#clipPath113)" />
    <path
       id="path114"
       d="m 0,0 c 1.761,0 2.641,-0.88 2.641,-2.641 v -34.506 c 0,-6.779 0.44,-10.915 6.954,-10.915 6.514,0 6.955,4.136 6.955,10.915 V -2.641 C 16.55,-0.88 17.518,0 19.19,0 h 9.86 c 1.76,0 2.64,-0.88 2.64,-2.641 v -39.171 c 0,-5.811 -1.232,-21.391 -22.095,-21.391 -20.863,0 -22.095,15.58 -22.095,21.391 V -2.641 C -12.5,-0.88 -11.531,0 -9.859,0 Z"
       style="fill:#00ad9c;fill-opacity:1;fill-rule:nonzero;stroke:none"
       transform="matrix(1.3333333,0,0,-1.3333333,1393.6749,398.91773)"
       clip-path="url(#clipPath115)" />
    <path
       id="path116"
       d="m 0,0 c 0,4.226 -0.616,6.338 -6.426,6.338 -5.809,0 -6.426,-2.112 -6.426,-6.338 v -9.595 c 0,-1.673 0.968,-2.64 2.641,-2.64 h 7.57 C -0.88,-12.147 0,-11.268 0,-9.507 Z m 15.141,-37.323 c 0,-1.937 -0.88,-2.993 -2.641,-2.993 H 2.641 c -1.672,0 -2.641,0.88 -2.641,2.64 v 7.658 c 0,1.762 -0.88,2.641 -2.641,2.641 h -7.57 c -1.673,0 -2.641,-0.879 -2.641,-2.641 v -7.658 c 0,-1.76 -0.88,-2.64 -2.641,-2.64 h -9.859 c -1.672,0 -2.641,1.056 -2.641,2.993 V 0 c 0,11.092 1.761,22.888 21.567,22.888 C 13.38,22.888 15.141,11.092 15.141,0 Z"
       style="fill:#00ad9c;fill-opacity:1;fill-rule:nonzero;stroke:none"
       transform="matrix(1.3333333,0,0,-1.3333333,1489.2179,427.32133)"
       clip-path="url(#clipPath117)" />
    <path
       id="path118"
       d="m 0,0 c 0,1.761 -0.881,2.641 -2.642,2.641 h -12.323 c -1.673,0 -2.641,0.968 -2.641,2.64 v 9.86 c 0,1.76 0.968,2.64 2.641,2.64 h 45.07 c 1.76,0 2.641,-0.88 2.641,-2.64 v -9.86 c 0,-1.672 -0.881,-2.64 -2.641,-2.64 H 17.781 c -1.673,0 -2.64,-0.88 -2.64,-2.641 v -41.197 c 0,-1.672 -0.881,-2.641 -2.642,-2.641 H 2.641 C 0.968,-43.838 0,-42.869 0,-41.197 Z"
       style="fill:#00ad9c;fill-opacity:1;fill-rule:nonzero;stroke:none"
       transform="matrix(1.3333333,0,0,-1.3333333,1542.5069,422.626)"
       clip-path="url(#clipPath119)" />
    <path
       id="path120"
       d="m 0,0 c -1.585,0 -2.729,-1.145 -2.729,-2.729 v -6.513 c 0,-1.585 1.144,-2.73 2.729,-2.73 h 4.489 c 4.226,0 6.338,0.529 6.338,5.986 C 10.827,-0.527 8.715,0 4.489,0 Z m 28.345,-41.725 c 1.232,-2.289 -0.176,-4.754 -2.905,-4.754 H 15.404 c -0.88,0 -1.672,0.44 -2.024,1.233 l -9.154,17.693 c -0.177,0.264 -0.441,0.441 -0.705,0.441 H 0 c -1.585,0 -2.729,-1.145 -2.729,-2.73 V -43.75 c 0,-1.584 -1.144,-2.729 -2.729,-2.729 h -9.859 c -1.584,0 -2.729,1.145 -2.729,2.729 v 56.162 c 0,1.584 1.145,2.729 2.729,2.729 H 3.961 c 15.669,0 22.007,-6.69 22.007,-21.127 0,-8.186 -2.025,-13.909 -6.69,-17.253 -0.352,-0.265 -0.44,-0.704 -0.264,-1.144 z"
       style="fill:#00ad9c;fill-opacity:1;fill-rule:nonzero;stroke:none"
       transform="matrix(1.3333333,0,0,-1.3333333,1622.7908,419.1052)"
       clip-path="url(#clipPath121)" />
    <path
       id="path122"
       d="m 0,0 c 0,6.777 -0.44,10.915 -6.954,10.915 -6.514,0 -6.954,-4.138 -6.954,-10.915 v -12.677 c 0,-6.778 0.44,-10.915 6.954,-10.915 6.514,0 6.954,4.137 6.954,10.915 z m 15.141,-17.342 c 0,-5.81 -1.233,-21.39 -22.095,-21.39 -20.862,0 -22.095,15.58 -22.095,21.39 V 4.665 c 0,5.81 1.233,21.391 22.095,21.391 20.862,0 22.095,-15.581 22.095,-21.391 z"
       style="fill:#00ad9c;fill-opacity:1;fill-rule:nonzero;stroke:none"
       transform="matrix(1.3333333,0,0,-1.3333333,1711.408,431.54533)"
       clip-path="url(#clipPath123)" />
    <path
       id="path124"
       d="m 0,0 c 0,5.81 1.232,21.391 22.095,21.391 18.485,0 21.566,-12.148 22.007,-19.015 0.087,-1.584 -0.705,-2.553 -2.289,-2.904 l -9.947,-2.201 c -1.761,-0.352 -2.729,0.44 -2.905,2.289 -0.353,4.225 -1.849,6.69 -6.866,6.69 -6.514,0 -6.954,-4.138 -6.954,-10.915 v -12.677 c 0,-6.778 0.44,-10.915 6.954,-10.915 6.513,0 6.954,4.137 6.954,8.45 h -5.106 c -1.672,0 -2.64,0.968 -2.64,2.642 v 7.041 c 0,1.762 0.968,2.642 2.64,2.642 h 17.606 c 1.761,0 2.64,-0.88 2.64,-2.642 v -11.883 c 0,-5.81 -1.232,-21.39 -22.094,-21.39 C 1.232,-43.397 0,-27.817 0,-22.007 Z"
       style="fill:#00ad9c;fill-opacity:1;fill-rule:nonzero;stroke:none"
       transform="matrix(1.3333333,0,0,-1.3333333,1746.5044,425.3252)"
       clip-path="url(#clipPath125)" />
    <path
       id="path126"
       d="m 0,0 c 0,4.226 -0.616,6.338 -6.426,6.338 -5.81,0 -6.426,-2.112 -6.426,-6.338 v -9.595 c 0,-1.673 0.968,-2.64 2.641,-2.64 h 7.57 C -0.88,-12.147 0,-11.268 0,-9.507 Z m 15.141,-37.323 c 0,-1.937 -0.88,-2.993 -2.641,-2.993 H 2.641 c -1.672,0 -2.641,0.88 -2.641,2.64 v 7.658 c 0,1.762 -0.88,2.641 -2.641,2.641 h -7.57 c -1.673,0 -2.641,-0.879 -2.641,-2.641 v -7.658 c 0,-1.76 -0.88,-2.64 -2.641,-2.64 h -9.859 c -1.672,0 -2.641,1.056 -2.641,2.993 V 0 c 0,11.092 1.761,22.888 21.567,22.888 C 13.38,22.888 15.141,11.092 15.141,0 Z"
       style="fill:#00ad9c;fill-opacity:1;fill-rule:nonzero;stroke:none"
       transform="matrix(1.3333333,0,0,-1.3333333,1858.0083,427.32133)"
       clip-path="url(#clipPath127)" />
    <path
       id="path128"
       d="m 0,0 c 0,1.761 -0.881,2.641 -2.642,2.641 h -12.323 c -1.673,0 -2.641,0.968 -2.641,2.64 v 9.86 c 0,1.76 0.968,2.64 2.641,2.64 h 45.07 c 1.76,0 2.641,-0.88 2.641,-2.64 v -9.86 c 0,-1.672 -0.881,-2.64 -2.641,-2.64 H 17.781 c -1.673,0 -2.64,-0.88 -2.64,-2.641 v -41.197 c 0,-1.672 -0.881,-2.641 -2.642,-2.641 H 2.641 C 0.968,-43.838 0,-42.869 0,-41.197 Z"
       style="fill:#00ad9c;fill-opacity:1;fill-rule:nonzero;stroke:none"
       transform="matrix(1.3333333,0,0,-1.3333333,1911.2987,422.626)"
       clip-path="url(#clipPath129)" />
    <path
       id="path130"
       d="m 0,0 c 0,6.777 -0.44,10.915 -6.954,10.915 -6.514,0 -6.954,-4.138 -6.954,-10.915 v -12.677 c 0,-6.778 0.44,-10.915 6.954,-10.915 6.514,0 6.954,4.137 6.954,10.915 z m 15.141,-17.342 c 0,-5.81 -1.233,-21.39 -22.095,-21.39 -20.862,0 -22.095,15.58 -22.095,21.39 V 4.665 c 0,5.81 1.233,21.391 22.095,21.391 20.862,0 22.095,-15.581 22.095,-21.391 z"
       style="fill:#00ad9c;fill-opacity:1;fill-rule:nonzero;stroke:none"
       transform="matrix(1.3333333,0,0,-1.3333333,2003.9055,431.54533)"
       clip-path="url(#clipPath131)" />
    <path
       id="path132"
       d="m 0,0 c -1.761,-0.353 -2.641,0.439 -2.905,2.2 -0.616,3.61 -3.521,5.898 -7.658,5.898 -3.433,0 -5.546,-2.024 -5.194,-4.049 1.233,-6.866 29.049,-6.69 29.049,-26.937 0,-2.64 -2.992,-18.221 -23.855,-18.221 -18.486,0 -22.448,12.148 -22.887,19.013 -0.088,1.585 0.704,2.553 2.288,2.906 l 9.947,2.2 c 1.761,0.352 2.73,-0.44 2.905,-2.288 0.352,-4.226 3.61,-6.691 7.747,-6.691 4.313,0 7.482,2.553 6.954,4.93 -1.672,7.482 -28.169,5.81 -28.169,26.057 -0.088,2.64 1.497,18.221 21.215,18.221 C 7.57,23.239 11.796,11.443 12.324,5.105 12.412,3.521 11.62,2.553 10.035,2.2 Z"
       style="fill:#00ad9c;fill-opacity:1;fill-rule:nonzero;stroke:none"
       transform="matrix(1.3333333,0,0,-1.3333333,2081.1372,428.0244)"
       clip-path="url(#clipPath133)" />
    <path
       id="path134"
       d="m 0,0 h 16.472 c 0,1.225 -0.306,9.588 -8.21,9.588 C 2.907,9.588 0.256,6.018 0,0 m 19.072,-0.918 c 0,-1.121 -0.051,-1.274 -0.051,-1.325 H 0 c 0.052,-0.867 0.204,-1.581 0.459,-2.193 0.715,-4.793 4.08,-6.629 8.874,-6.629 3.008,0 6.017,0.612 8.057,1.733 v -2.6 c -2.295,-1.072 -5.456,-1.582 -8.261,-1.582 -5.609,0 -11.73,2.397 -11.73,12.24 0,3.926 1.225,13.258 11.016,13.258 10.556,0 10.657,-11.269 10.657,-12.902"
       style="fill:#424241;fill-opacity:1;fill-rule:nonzero;stroke:none"
       transform="matrix(1.3333333,0,0,-1.3333333,1438.3624,519.5948)"
       clip-path="url(#clipPath135)" />
    <path
       id="path136"
       d="m 0,0 c 0,-3.979 -3.06,-6.834 -8.976,-6.834 -3.263,0 -5.813,0.816 -7.751,1.785 v 2.653 c 2.245,-1.174 4.845,-1.939 7.65,-1.939 3.773,0 6.527,1.428 6.527,4.335 0,7.395 -14.023,3.161 -14.023,11.881 0,3.519 2.396,6.885 8.414,6.885 2.651,0 4.895,-0.714 6.68,-1.479 v -2.499 c -1.581,0.765 -3.774,1.53 -6.425,1.53 -3.264,0 -6.119,-1.224 -6.119,-4.437 C -14.023,5.863 0,9.586 0,0"
       style="fill:#424241;fill-opacity:1;fill-rule:nonzero;stroke:none"
       transform="matrix(1.3333333,0,0,-1.3333333,1492.6879,528.56867)"
       clip-path="url(#clipPath137)" />
    <path
       id="path138"
       d="m 0,0 c 0,9.434 -4.896,10.658 -8.414,10.658 -5.508,0 -7.395,-2.703 -7.395,-5.252 V -8.822 c 2.091,-0.918 4.539,-1.377 7.038,-1.377 C -3.314,-10.199 0,-7.648 0,0 m 2.55,-0.051 c 0,-10.301 -6.018,-12.545 -11.321,-12.545 -2.499,0 -4.896,0.459 -7.038,1.225 V -21.57 h -2.499 V 5.304 c 0,1.886 0.868,7.7 9.894,7.7 4.182,0 10.964,-1.734 10.964,-13.055"
       style="fill:#424241;fill-opacity:1;fill-rule:nonzero;stroke:none"
       transform="matrix(1.3333333,0,0,-1.3333333,1525.322,520.8864)"
       clip-path="url(#clipPath139)" />
    <path
       id="path140"
       d="m 0,0 c -0.663,0.102 -2.907,0.459 -6.272,0.459 -3.111,0 -9.027,-0.715 -9.027,-5.66 0,-4.539 4.743,-5.406 7.803,-5.406 3.009,0 7.496,0.816 7.496,5.303 z m 2.499,2.244 v -7.548 c 0,-6.731 -6.885,-7.598 -9.995,-7.598 -3.213,0 -10.302,1.02 -10.302,7.701 0,7.699 9.536,8.006 11.831,8.006 3.315,0 5.1,-0.358 5.916,-0.51 0,5.201 -2.55,7.802 -8.159,7.802 -3.213,0 -5.865,-0.765 -7.038,-1.122 v 2.448 c 1.836,0.612 4.386,1.173 7.19,1.173 7.344,0 10.557,-3.621 10.557,-10.352"
       style="fill:#424241;fill-opacity:1;fill-rule:nonzero;stroke:none"
       transform="matrix(1.3333333,0,0,-1.3333333,1559.8585,520.40987)"
       clip-path="url(#clipPath141)" />
    <path
       id="path142"
       d="m 0,0 c 2.346,0 4.742,0.459 6.935,1.326 v -2.447 c -2.294,-0.867 -4.743,-1.326 -7.19,-1.326 -5.253,0 -11.576,2.142 -11.576,12.8 0,10.606 6.323,12.799 11.576,12.799 2.447,0 4.896,-0.509 7.19,-1.326 V 19.379 C 4.742,20.195 2.346,20.705 0,20.705 -5.609,20.705 -9.332,18.104 -9.332,10.353 -9.332,2.551 -5.609,0 0,0"
       style="fill:#424241;fill-opacity:1;fill-rule:nonzero;stroke:none"
       transform="matrix(1.3333333,0,0,-1.3333333,1587.1905,534.4176)"
       clip-path="url(#clipPath143)" />
    <path
       id="path144"
       d="m 346.199,217.16 h 2.498 v -24.732 h -2.498 z m -0.153,8.363 h 2.805 v -3.773 h -2.805 z"
       style="fill:#424241;fill-opacity:1;fill-rule:nonzero;stroke:none"
       transform="matrix(1.3333333,0,0,-1.3333333,1142.52,793.70667)"
       clip-path="url(#clipPath145)" />
    <path
       id="path146"
       d="m 0,0 c 0,7.802 -3.62,10.454 -9.077,10.454 -5.405,0 -9.077,-2.652 -9.077,-10.454 0,-7.802 3.672,-10.454 9.077,-10.454 C -3.62,-10.454 0,-7.802 0,0 m 2.499,0 c 0,-10.505 -6.272,-12.8 -11.576,-12.8 -5.304,0 -11.575,2.295 -11.575,12.8 0,10.505 6.271,12.8 11.575,12.8 5.304,0 11.576,-2.295 11.576,-12.8"
       style="fill:#424241;fill-opacity:1;fill-rule:nonzero;stroke:none"
       transform="matrix(1.3333333,0,0,-1.3333333,1643.7556,520.61427)"
       clip-path="url(#clipPath147)" />
    <path
       id="path148"
       d="m 0,0 c 2.346,0 4.742,0.459 6.935,1.326 v -2.447 c -2.294,-0.867 -4.743,-1.326 -7.19,-1.326 -5.253,0 -11.576,2.142 -11.576,12.8 0,10.606 6.323,12.799 11.576,12.799 2.447,0 4.896,-0.509 7.19,-1.326 V 19.379 C 4.742,20.195 2.346,20.705 0,20.705 -5.609,20.705 -9.332,18.104 -9.332,10.353 -9.332,2.551 -5.609,0 0,0"
       style="fill:#424241;fill-opacity:1;fill-rule:nonzero;stroke:none"
       transform="matrix(1.3333333,0,0,-1.3333333,1691.5487,534.4176)"
       clip-path="url(#clipPath149)" />
    <path
       id="path150"
       d="m 0,0 c 0,7.802 -3.62,10.454 -9.077,10.454 -5.405,0 -9.077,-2.652 -9.077,-10.454 0,-7.802 3.672,-10.454 9.077,-10.454 C -3.62,-10.454 0,-7.802 0,0 m 2.499,0 c 0,-10.505 -6.272,-12.8 -11.576,-12.8 -5.304,0 -11.575,2.295 -11.575,12.8 0,10.505 6.271,12.8 11.575,12.8 5.304,0 11.576,-2.295 11.576,-12.8"
       style="fill:#424241;fill-opacity:1;fill-rule:nonzero;stroke:none"
       transform="matrix(1.3333333,0,0,-1.3333333,1733.5655,520.61427)"
       clip-path="url(#clipPath151)" />
    <path
       id="path152"
       d="m 0,0 h -2.499 l -8.618,24.732 h 2.703 L -1.225,3.621 5.354,24.732 H 7.751 L 14.432,3.621 c 2.345,7.037 4.793,14.074 7.189,21.111 h 2.652 L 15.706,0 h -2.55 L 6.578,20.959 Z"
       style="fill:#424241;fill-opacity:1;fill-rule:nonzero;stroke:none"
       transform="matrix(1.3333333,0,0,-1.3333333,1756.6801,537.1364)"
       clip-path="url(#clipPath153)" />
    <path
       id="path154"
       d="m 0,0 c 0,7.802 -3.62,10.454 -9.077,10.454 -5.405,0 -9.077,-2.652 -9.077,-10.454 0,-7.802 3.672,-10.454 9.077,-10.454 C -3.62,-10.454 0,-7.802 0,0 m 2.499,0 c 0,-10.505 -6.272,-12.8 -11.576,-12.8 -5.303,0 -11.575,2.295 -11.575,12.8 0,10.505 6.272,12.8 11.575,12.8 5.304,0 11.576,-2.295 11.576,-12.8"
       style="fill:#424241;fill-opacity:1;fill-rule:nonzero;stroke:none"
       transform="matrix(1.3333333,0,0,-1.3333333,1821.6085,520.61427)"
       clip-path="url(#clipPath155)" />
    <path
       id="path156"
       d="M 0,0 V -21.163 H -2.499 V 1.632 C -1.071,2.243 3.468,3.927 9.128,3.978 V 1.53 C 5.252,1.428 1.937,0.561 0,0"
       style="fill:#424241;fill-opacity:1;fill-rule:nonzero;stroke:none"
       transform="matrix(1.3333333,0,0,-1.3333333,1836.632,508.91893)"
       clip-path="url(#clipPath157)" />
    <path
       id="path158"
       d="m 0,0 h -3.365 l -10.25,11.729 -3.519,-3.774 V 0 h -2.55 v 34.269 h 2.55 V 11.525 l 12.341,13.207 h 3.416 L -11.933,13.514 Z"
       style="fill:#424241;fill-opacity:1;fill-rule:nonzero;stroke:none"
       transform="matrix(1.3333333,0,0,-1.3333333,1881.9132,537.1364)"
       clip-path="url(#clipPath159)" />
    <path
       id="path160"
       d="m 559.591,217.16 h 2.498 v -24.732 h -2.498 z m -0.154,8.363 h 2.805 v -3.773 h -2.805 z"
       style="fill:#424241;fill-opacity:1;fill-rule:nonzero;stroke:none"
       transform="matrix(1.3333333,0,0,-1.3333333,1142.52,793.70667)"
       clip-path="url(#clipPath161)" />
    <path
       id="path162"
       d="M 0,0 V -16.114 H -2.55 V 0 c 0,3.62 -1.529,6.527 -7.292,6.527 -3.009,0 -5.762,-0.764 -7.853,-1.581 v -21.06 h -2.499 V 6.425 c 1.734,0.918 5.813,2.652 10.607,2.652 C -3.519,9.077 0,6.018 0,0"
       style="fill:#424241;fill-opacity:1;fill-rule:nonzero;stroke:none"
       transform="matrix(1.3333333,0,0,-1.3333333,1929.1619,515.6508)"
       clip-path="url(#clipPath163)" />
    <path
       id="path164"
       d="m 0,0 c 0,2.396 -1.733,5.049 -7.19,5.049 -3.366,0 -8.16,-1.122 -8.16,-10.301 0,-8.567 4.437,-9.791 8.466,-9.791 2.397,0 4.692,0.51 6.884,1.479 z m 2.499,-0.102 v -19.021 c 0,-3.926 -1.785,-8.414 -10.709,-8.414 -2.754,0 -5.049,0.357 -6.833,0.816 v 2.397 c 1.632,-0.408 3.875,-0.817 6.527,-0.817 7.343,0 8.516,3.061 8.516,5.916 v 3.111 c -2.192,-0.816 -4.538,-1.275 -6.884,-1.275 -4.998,0 -11.015,1.938 -11.015,12.137 0,11.015 6.629,12.647 10.709,12.647 8.924,0 9.689,-5.762 9.689,-7.497"
       style="fill:#424241;fill-opacity:1;fill-rule:nonzero;stroke:none"
       transform="matrix(1.3333333,0,0,-1.3333333,1961.7257,513.4072)"
       clip-path="url(#clipPath165)" />
    <path
       id="path166"
       d="m 0,0 c -0.326,-0.012 -0.629,-0.168 -0.83,-0.426 l -11.34,-14.111 c -0.312,-0.389 -0.326,-0.936 -0.037,-1.34 l 11.75,-16.283 -16.275,-14.686 c -0.465,-0.395 -0.524,-1.093 -0.127,-1.558 0.392,-0.467 1.091,-0.524 1.558,-0.128 0.016,0.014 0.035,0.03 0.049,0.046 l 17.008,15.351 c 0.42,0.376 0.488,1.008 0.158,1.465 L -9.918,-15.266 0.895,-1.81 c 0.388,0.47 0.32,1.167 -0.147,1.556 C 0.537,-0.079 0.27,0.011 0,0"
       style="fill:#424241;fill-opacity:1;fill-rule:nonzero;stroke:none"
       transform="matrix(1.3333333,0,0,-1.3333333,1537.0291,266.38573)"
       clip-path="url(#clipPath167)" />
    <path
       id="path168"
       d="m 0,0 c 0.182,-1.355 0.555,-3.865 0.906,-8.666 0.432,-5.916 0.582,-13.016 -0.365,-17.398 -0.773,-3.578 -2.123,-7.268 -4.6,-9.579 -3.298,-3.076 -8.236,-4.628 -12.927,-5.158 -4.543,-0.512 -9.504,0 -13.403,2.102 -2.049,1.103 -3.646,3.293 -5.002,5.541 -1.531,2.537 -2.425,5.543 -3.072,8.574 -1.391,6.553 -1.601,18.509 -1.642,21.216 l 21.759,-11.042 c 0.393,-0.199 0.866,-0.147 1.203,0.136 z M 0.807,3.275 C 0.574,3.258 0.355,3.17 0.178,3.02 l -18.172,-15.131 -22.772,11.556 c -0.543,0.278 -1.209,0.062 -1.486,-0.484 -0.08,-0.158 -0.123,-0.333 -0.119,-0.513 0,0 0.07,-15.592 1.748,-23.493 0.668,-3.143 1.613,-6.383 3.342,-9.252 1.414,-2.346 3.168,-4.904 5.842,-6.346 4.449,-2.396 9.818,-2.907 14.699,-2.356 4.99,0.563 10.365,2.173 14.189,5.737 3.026,2.821 4.438,6.951 5.256,10.728 1.057,4.895 0.844,12.031 0.404,18.03 C 2.67,-2.504 1.979,2.33 1.979,2.33 1.898,2.903 1.385,3.318 0.807,3.275"
       style="fill:#424241;fill-opacity:1;fill-rule:nonzero;stroke:none"
       transform="matrix(1.3333333,0,0,-1.3333333,1500.9353,247.34413)"
       clip-path="url(#clipPath169)" />
    <path
       id="path170"
       d="m 0,0 c -0.609,0.013 -1.117,-0.471 -1.129,-1.082 -0.004,-0.186 0.041,-0.369 0.123,-0.533 L 17.422,-38.359 1.424,-58.22 l -31.555,-1.123 -14.783,18.851 15.609,36.273 c 0.243,0.561 -0.011,1.212 -0.574,1.455 -0.56,0.245 -1.213,-0.011 -1.455,-0.572 l -0.004,-0.008 -15.861,-36.878 c -0.16,-0.37 -0.104,-0.799 0.146,-1.117 l 15.528,-19.808 c 0.216,-0.278 0.552,-0.434 0.908,-0.421 l 32.625,1.157 c 0.32,0.012 0.619,0.16 0.82,0.41 l 16.768,20.809 c 0.269,0.337 0.32,0.802 0.123,1.189 L 0.973,-0.624 C 0.791,-0.25 0.414,-0.008 0,0"
       style="fill:#424241;fill-opacity:1;fill-rule:nonzero;stroke:none"
       transform="matrix(1.3333333,0,0,-1.3333333,1497.9613,293.56547)"
       clip-path="url(#clipPath171)" />
    <path
       id="path172"
       d="m 0,0 c -0.613,0.02 -1.121,-0.459 -1.143,-1.069 -0.013,-0.46 0.256,-0.88 0.678,-1.058 L 5.9,-4.928 c 0.557,-0.246 1.211,0.008 1.455,0.567 0.249,0.56 -0.005,1.212 -0.566,1.458 L 0.428,-0.102 C 0.293,-0.039 0.146,-0.004 0,0"
       style="fill:#424241;fill-opacity:1;fill-rule:nonzero;stroke:none"
       transform="matrix(1.3333333,0,0,-1.3333333,1460.6488,272.57333)"
       clip-path="url(#clipPath173)" />
    <path
       id="path174"
       d="M 0,0 C -0.285,-0.015 -0.555,-0.141 -0.752,-0.352 L -5.02,-4.814 c -0.431,-0.43 -0.435,-1.131 -0.007,-1.564 0.429,-0.434 1.131,-0.436 1.562,-0.009 0.016,0.014 0.027,0.028 0.043,0.041 l 4.27,4.467 C 1.275,-1.442 1.27,-0.743 0.834,-0.314 0.611,-0.098 0.311,0.018 0,0"
       style="fill:#424241;fill-opacity:1;fill-rule:nonzero;stroke:none"
       transform="matrix(1.3333333,0,0,-1.3333333,1492.9796,268.13573)"
       clip-path="url(#clipPath175)" />
    <path
       id="path176"
       d="m 0,0 c -0.324,-0.012 -0.629,-0.168 -0.83,-0.426 l -11.336,-14.111 c -0.313,-0.389 -0.328,-0.936 -0.035,-1.34 L -0.455,-32.16 -16.732,-46.846 c -0.463,-0.395 -0.52,-1.093 -0.127,-1.558 0.398,-0.467 1.093,-0.524 1.558,-0.128 0.018,0.014 0.035,0.03 0.051,0.046 l 17.01,15.351 c 0.418,0.376 0.484,1.008 0.156,1.465 L -9.914,-15.266 0.896,-1.81 C 1.285,-1.34 1.221,-0.643 0.75,-0.254 0.541,-0.079 0.273,0.011 0,0"
       style="fill:#424241;fill-opacity:1;fill-rule:nonzero;stroke:none"
       transform="matrix(1.3333333,0,0,-1.3333333,1678.8389,266.38573)"
       clip-path="url(#clipPath177)" />
    <path
       id="path178"
       d="m 0,0 c 0.184,-1.355 0.557,-3.865 0.908,-8.666 0.432,-5.916 0.584,-13.016 -0.365,-17.398 -0.773,-3.578 -2.123,-7.268 -4.6,-9.579 -3.3,-3.076 -8.238,-4.628 -12.931,-5.158 -4.541,-0.512 -9.5,0 -13.403,2.102 -2.048,1.103 -3.646,3.293 -5,5.541 -1.531,2.537 -2.423,5.543 -3.07,8.574 -1.391,6.553 -1.603,18.509 -1.643,21.216 l 21.758,-11.042 c 0.393,-0.199 0.867,-0.147 1.207,0.136 z M 0.805,3.275 C 0.574,3.258 0.357,3.17 0.18,3.02 l -18.176,-15.131 -22.768,11.556 c -0.543,0.278 -1.211,0.062 -1.488,-0.484 -0.082,-0.158 -0.119,-0.333 -0.119,-0.513 0,0 0.068,-15.592 1.752,-23.493 0.666,-3.143 1.609,-6.383 3.338,-9.252 1.416,-2.346 3.17,-4.904 5.842,-6.346 4.449,-2.396 9.82,-2.907 14.699,-2.356 4.988,0.563 10.365,2.173 14.187,5.737 3.028,2.821 4.442,6.951 5.256,10.728 1.061,4.895 0.846,12.031 0.406,18.03 C 2.672,-2.504 1.982,2.33 1.982,2.33 1.896,2.903 1.385,3.318 0.805,3.275"
       style="fill:#424241;fill-opacity:1;fill-rule:nonzero;stroke:none"
       transform="matrix(1.3333333,0,0,-1.3333333,1642.7479,247.34413)"
       clip-path="url(#clipPath179)" />
    <path
       id="path180"
       d="m 0,0 c -0.609,0.013 -1.115,-0.471 -1.127,-1.082 -0.002,-0.186 0.039,-0.369 0.125,-0.533 L 17.426,-38.359 1.428,-58.22 l -31.557,-1.123 -14.779,18.851 15.605,36.273 c 0.244,0.561 -0.011,1.212 -0.572,1.455 -0.559,0.245 -1.213,-0.011 -1.459,-0.572 0,0 0,-0.004 -0.004,-0.008 l -15.859,-36.878 c -0.158,-0.37 -0.104,-0.799 0.146,-1.117 l 15.528,-19.808 c 0.216,-0.278 0.556,-0.434 0.908,-0.421 l 32.625,1.157 c 0.322,0.012 0.621,0.16 0.822,0.41 l 16.764,20.809 c 0.273,0.337 0.32,0.802 0.123,1.189 L 0.973,-0.624 C 0.791,-0.25 0.418,-0.008 0,0"
       style="fill:#424241;fill-opacity:1;fill-rule:nonzero;stroke:none"
       transform="matrix(1.3333333,0,0,-1.3333333,1639.7712,293.56547)"
       clip-path="url(#clipPath181)" />
    <path
       id="path182"
       d="m 0,0 c -0.609,0.02 -1.121,-0.459 -1.141,-1.069 -0.011,-0.46 0.258,-0.88 0.68,-1.058 L 5.9,-4.928 c 0.561,-0.246 1.213,0.008 1.459,0.567 0.246,0.56 -0.007,1.212 -0.566,1.458 L 0.432,-0.102 C 0.295,-0.039 0.148,-0.004 0,0"
       style="fill:#424241;fill-opacity:1;fill-rule:nonzero;stroke:none"
       transform="matrix(1.3333333,0,0,-1.3333333,1602.4588,272.57333)"
       clip-path="url(#clipPath183)" />
    <path
       id="path184"
       d="m 0,0 c -0.289,-0.015 -0.561,-0.141 -0.754,-0.352 l -4.267,-4.462 c -0.436,-0.43 -0.44,-1.131 -0.01,-1.564 0.431,-0.434 1.129,-0.436 1.566,-0.009 0.012,0.014 0.026,0.028 0.037,0.041 l 4.274,4.467 C 1.273,-1.442 1.266,-0.743 0.83,-0.314 0.609,-0.098 0.309,0.018 0,0"
       style="fill:#424241;fill-opacity:1;fill-rule:nonzero;stroke:none"
       transform="matrix(1.3333333,0,0,-1.3333333,1634.7973,268.13573)"
       clip-path="url(#clipPath185)" />
    <path
       id="path186"
       d="m 0,0 c -0.324,-0.012 -0.629,-0.168 -0.83,-0.426 l -11.338,-14.111 c -0.311,-0.389 -0.324,-0.936 -0.033,-1.34 L -0.455,-32.16 -16.729,-46.846 c -0.466,-0.395 -0.525,-1.093 -0.128,-1.558 0.394,-0.467 1.091,-0.524 1.556,-0.128 0.02,0.014 0.037,0.03 0.053,0.046 L 1.76,-33.135 c 0.418,0.376 0.486,1.008 0.156,1.465 L -9.916,-15.266 0.895,-1.81 C 1.287,-1.34 1.219,-0.643 0.748,-0.254 0.541,-0.079 0.273,0.011 0,0"
       style="fill:#424241;fill-opacity:1;fill-rule:nonzero;stroke:none"
       transform="matrix(1.3333333,0,0,-1.3333333,1820.6515,266.38573)"
       clip-path="url(#clipPath187)" />
    <path
       id="path188"
       d="m 0,0 c 0.182,-1.355 0.557,-3.865 0.906,-8.666 0.434,-5.916 0.584,-13.016 -0.365,-17.398 -0.773,-3.578 -2.123,-7.268 -4.6,-9.579 -3.3,-3.076 -8.24,-4.628 -12.929,-5.158 -4.545,-0.512 -9.504,0 -13.403,2.102 -2.048,1.103 -3.648,3.293 -5.004,5.541 -1.527,2.537 -2.421,5.543 -3.066,8.574 -1.394,6.553 -1.605,18.509 -1.644,21.216 L -18.35,-14.41 c 0.395,-0.199 0.87,-0.147 1.209,0.136 z M 0.803,3.275 C 0.574,3.258 0.355,3.17 0.178,3.02 l -18.174,-15.131 -22.77,11.556 c -0.543,0.278 -1.211,0.062 -1.486,-0.484 -0.082,-0.158 -0.123,-0.333 -0.121,-0.513 0,0 0.068,-15.592 1.75,-23.493 0.668,-3.143 1.609,-6.383 3.338,-9.252 1.416,-2.346 3.172,-4.904 5.844,-6.346 4.449,-2.396 9.82,-2.907 14.699,-2.356 4.988,0.563 10.365,2.173 14.189,5.737 3.028,2.821 4.44,6.951 5.254,10.728 1.061,4.895 0.846,12.031 0.404,18.03 C 2.67,-2.504 1.98,2.33 1.98,2.33 1.896,2.903 1.385,3.318 0.803,3.275"
       style="fill:#424241;fill-opacity:1;fill-rule:nonzero;stroke:none"
       transform="matrix(1.3333333,0,0,-1.3333333,1784.5629,247.34413)"
       clip-path="url(#clipPath189)" />
    <path
       id="path190"
       d="m 0,0 c -0.609,0.013 -1.115,-0.471 -1.127,-1.082 -0.004,-0.186 0.039,-0.369 0.123,-0.533 l 18.43,-36.744 -15.998,-19.861 -31.559,-1.123 -14.779,18.851 15.605,36.273 c 0.248,0.561 -0.011,1.212 -0.57,1.455 -0.561,0.245 -1.213,-0.011 -1.457,-0.572 l -0.004,-0.008 -15.859,-36.878 c -0.16,-0.37 -0.104,-0.799 0.144,-1.117 l 15.53,-19.808 c 0.216,-0.278 0.554,-0.434 0.906,-0.421 l 32.625,1.157 c 0.32,0.012 0.623,0.16 0.822,0.41 l 16.764,20.809 c 0.273,0.337 0.32,0.802 0.127,1.189 L 0.973,-0.624 C 0.791,-0.25 0.416,-0.008 0,0"
       style="fill:#424241;fill-opacity:1;fill-rule:nonzero;stroke:none"
       transform="matrix(1.3333333,0,0,-1.3333333,1781.5837,293.56547)"
       clip-path="url(#clipPath191)" />
    <path
       id="path192"
       d="m 0,0 c -0.609,0.02 -1.121,-0.459 -1.143,-1.069 -0.013,-0.46 0.256,-0.88 0.682,-1.058 l 6.359,-2.801 c 0.559,-0.246 1.211,0.008 1.459,0.567 0.247,0.56 -0.007,1.212 -0.568,1.458 L 0.428,-0.102 C 0.295,-0.039 0.148,-0.004 0,0"
       style="fill:#424241;fill-opacity:1;fill-rule:nonzero;stroke:none"
       transform="matrix(1.3333333,0,0,-1.3333333,1744.2739,272.57333)"
       clip-path="url(#clipPath193)" />
    <path
       id="path194"
       d="M 0,0 C -0.289,-0.015 -0.559,-0.141 -0.752,-0.352 L -5.02,-4.814 c -0.435,-0.43 -0.439,-1.131 -0.007,-1.564 0.427,-0.434 1.127,-0.436 1.562,-0.009 0.014,0.014 0.027,0.028 0.039,0.041 l 4.272,4.467 C 1.273,-1.442 1.271,-0.743 0.832,-0.314 0.611,-0.098 0.311,0.018 0,0"
       style="fill:#424241;fill-opacity:1;fill-rule:nonzero;stroke:none"
       transform="matrix(1.3333333,0,0,-1.3333333,1776.6072,268.13573)"
       clip-path="url(#clipPath195)" />
    <path
       id="path196"
       d="m 0,0 c -0.328,-0.012 -0.631,-0.168 -0.83,-0.426 l -11.34,-14.111 c -0.312,-0.389 -0.326,-0.936 -0.037,-1.34 L -0.461,-32.16 -16.732,-46.846 c -0.465,-0.395 -0.524,-1.093 -0.129,-1.558 0.394,-0.467 1.093,-0.524 1.56,-0.128 0.018,0.014 0.033,0.03 0.049,0.046 l 17.006,15.351 c 0.422,0.376 0.486,1.008 0.158,1.465 L -9.918,-15.266 0.895,-1.81 C 1.283,-1.34 1.217,-0.643 0.748,-0.254 0.535,-0.079 0.271,0.011 0,0"
       style="fill:#424241;fill-opacity:1;fill-rule:nonzero;stroke:none"
       transform="matrix(1.3333333,0,0,-1.3333333,1962.4692,266.38573)"
       clip-path="url(#clipPath197)" />
    <path
       id="path198"
       d="m 0,0 c 0.18,-1.355 0.555,-3.865 0.906,-8.666 0.432,-5.916 0.584,-13.016 -0.367,-17.398 -0.771,-3.578 -2.119,-7.268 -4.6,-9.579 -3.298,-3.076 -8.234,-4.628 -12.927,-5.158 -4.543,-0.512 -9.5,0 -13.401,2.102 -2.05,1.103 -3.646,3.293 -5.002,5.541 -1.531,2.537 -2.425,5.543 -3.07,8.574 -1.394,6.553 -1.603,18.509 -1.644,21.216 l 21.757,-11.042 c 0.393,-0.199 0.866,-0.147 1.205,0.136 z M 0.807,3.275 C 0.574,3.258 0.354,3.17 0.178,3.02 l -18.172,-15.131 -22.77,11.556 c -0.547,0.278 -1.211,0.062 -1.488,-0.484 -0.08,-0.158 -0.123,-0.333 -0.119,-0.513 0,0 0.068,-15.592 1.748,-23.493 0.668,-3.143 1.613,-6.383 3.342,-9.252 1.414,-2.346 3.168,-4.904 5.842,-6.346 4.447,-2.396 9.82,-2.907 14.699,-2.356 4.988,0.563 10.365,2.173 14.189,5.737 3.026,2.821 4.438,6.951 5.256,10.728 1.059,4.895 0.842,12.031 0.404,18.03 C 2.67,-2.504 1.979,2.33 1.979,2.33 1.898,2.903 1.385,3.318 0.807,3.275"
       style="fill:#424241;fill-opacity:1;fill-rule:nonzero;stroke:none"
       transform="matrix(1.3333333,0,0,-1.3333333,1926.3755,247.34413)"
       clip-path="url(#clipPath199)" />
    <path
       id="path200"
       d="m 0,0 c -0.611,0.013 -1.119,-0.471 -1.131,-1.082 -0.004,-0.186 0.041,-0.369 0.127,-0.533 L 17.422,-38.359 1.424,-58.22 l -31.557,-1.123 -14.777,18.851 15.605,36.273 c 0.243,0.561 -0.011,1.212 -0.572,1.455 -0.562,0.245 -1.213,-0.011 -1.457,-0.572 l -0.004,-0.008 -15.861,-36.878 c -0.162,-0.37 -0.104,-0.799 0.146,-1.117 l 15.53,-19.808 c 0.214,-0.278 0.552,-0.434 0.906,-0.421 l 32.623,1.157 c 0.32,0.012 0.621,0.16 0.822,0.41 l 16.768,20.809 c 0.269,0.337 0.318,0.802 0.123,1.189 L 0.971,-0.624 C 0.789,-0.25 0.414,-0.008 0,0"
       style="fill:#424241;fill-opacity:1;fill-rule:nonzero;stroke:none"
       transform="matrix(1.3333333,0,0,-1.3333333,1923.4015,293.56547)"
       clip-path="url(#clipPath201)" />
    <path
       id="path202"
       d="m 0,0 c -0.613,0.02 -1.121,-0.459 -1.143,-1.069 -0.015,-0.46 0.256,-0.88 0.678,-1.058 l 6.363,-2.801 c 0.559,-0.246 1.213,0.008 1.457,0.567 0.249,0.56 -0.007,1.212 -0.568,1.458 L 0.428,-0.102 C 0.293,-0.039 0.146,-0.004 0,0"
       style="fill:#424241;fill-opacity:1;fill-rule:nonzero;stroke:none"
       transform="matrix(1.3333333,0,0,-1.3333333,1886.0891,272.57333)"
       clip-path="url(#clipPath203)" />
    <path
       id="path204"
       d="M 0,0 C -0.285,-0.015 -0.555,-0.141 -0.752,-0.352 L -5.02,-4.814 c -0.433,-0.43 -0.439,-1.131 -0.007,-1.564 0.429,-0.434 1.131,-0.436 1.562,-0.009 l 0.041,0.041 4.274,4.467 C 1.273,-1.442 1.268,-0.743 0.832,-0.314 0.613,-0.098 0.311,0.018 0,0"
       style="fill:#424241;fill-opacity:1;fill-rule:nonzero;stroke:none"
       transform="matrix(1.3333333,0,0,-1.3333333,1918.4197,268.13573)"
       clip-path="url(#clipPath205)" />
  </g>
</svg>
