<svg width="218" height="49" viewBox="0 0 218 49" fill="none" xmlns="http://www.w3.org/2000/svg">
<path d="M1.62715 12.2842V0.574183H9.28804L9.27994 2.24241H3.6274V5.61126H8.61589V7.2552H3.6274V12.2842H1.62715ZM13.7796 12.4461C13.3693 12.4461 12.9725 12.3868 12.5892 12.268C12.2112 12.1438 11.8711 11.9657 11.5688 11.7335C11.2664 11.496 11.0262 11.2044 10.848 10.8589C10.6699 10.5134 10.5808 10.1112 10.5808 9.65226V3.91064H12.5568V9.42552C12.5568 9.87901 12.6998 10.2515 12.986 10.5431C13.2775 10.8346 13.7148 10.9804 14.2979 10.9804C14.827 10.9804 15.2508 10.8427 15.5693 10.5674C15.8878 10.2866 16.0471 9.88441 16.0471 9.36073V3.91064H18.0068V12.2842H16.4925L16.2738 10.6483C16.1713 11.1072 15.9904 11.469 15.7313 11.7335C15.4775 11.9926 15.1779 12.1762 14.8324 12.2842C14.4922 12.3922 14.1413 12.4461 13.7796 12.4461ZM20.0612 12.2842V3.91064H21.9886V5.10918C22.1182 4.89322 22.2936 4.68537 22.515 4.48561C22.7417 4.28586 23.0198 4.12389 23.3491 3.99972C23.6784 3.87555 24.0644 3.81346 24.5071 3.81346C25.0254 3.81346 25.5059 3.91604 25.9486 4.1212C26.3967 4.32635 26.7557 4.64758 27.0257 5.08488C27.301 5.52218 27.4387 6.08636 27.4387 6.7774V12.2842H25.4627V7.01225C25.4627 6.46157 25.3115 6.05397 25.0092 5.78942C24.7069 5.51948 24.3263 5.38451 23.8674 5.38451C23.5542 5.38451 23.2573 5.4385 22.9766 5.54648C22.6958 5.64906 22.4664 5.80832 22.2882 6.02427C22.1155 6.23482 22.0291 6.49937 22.0291 6.8179V12.2842H20.0612ZM32.4033 12.4461C31.2966 12.4461 30.4274 12.0655 29.7957 11.3043C29.164 10.5431 28.8482 9.46061 28.8482 8.05692C28.8482 7.18231 28.9751 6.42378 29.2288 5.78133C29.488 5.13347 29.8686 4.63408 30.3707 4.28316C30.8728 3.92684 31.4909 3.74868 32.2252 3.74868C32.5707 3.74868 32.8838 3.79187 33.1646 3.87825C33.4507 3.95923 33.7044 4.06721 33.9258 4.20218C34.1471 4.33715 34.3334 4.48561 34.4846 4.64758C34.6411 4.80954 34.7626 4.97151 34.849 5.13347V0.250256H36.833V12.2842H35.3754L35.1567 10.5674C35.0865 10.7671 34.9867 10.9777 34.8571 11.199C34.7329 11.415 34.5628 11.6174 34.3469 11.8064C34.1363 11.9953 33.8718 12.1492 33.5533 12.268C33.2347 12.3868 32.8514 12.4461 32.4033 12.4461ZM32.8082 10.9966C33.5155 10.9966 34.0311 10.7671 34.355 10.3082C34.6843 9.84392 34.849 9.07729 34.849 8.00833C34.8436 7.39827 34.768 6.88538 34.6222 6.46967C34.4819 6.05397 34.2659 5.74083 33.9744 5.53028C33.6828 5.31973 33.3022 5.21445 32.8325 5.21445C32.2387 5.21445 31.7501 5.4331 31.3668 5.87041C30.9888 6.30771 30.7999 7.02035 30.7999 8.00833C30.7999 8.99091 30.9753 9.73595 31.3263 10.2434C31.6772 10.7455 32.1712 10.9966 32.8082 10.9966ZM41.2163 12.4461C40.6818 12.4461 40.2013 12.349 39.7748 12.1546C39.3537 11.9549 39.0217 11.6714 38.7787 11.3043C38.5412 10.9318 38.4224 10.481 38.4224 9.9519C38.4224 9.0287 38.7544 8.33226 39.4185 7.86256C40.0879 7.39287 41.1515 7.14722 42.6092 7.12563L43.8644 7.09323V6.52636C43.8644 6.08366 43.7321 5.73814 43.4676 5.48979C43.2084 5.23605 42.8035 5.11187 42.2528 5.11727C41.8425 5.12267 41.47 5.21985 41.1353 5.40881C40.8006 5.59237 40.5792 5.9028 40.4712 6.3401H38.7949C38.8273 5.76783 38.992 5.29003 39.2889 4.90672C39.5912 4.51801 40.0042 4.22917 40.5279 4.04021C41.0516 3.84586 41.6563 3.74868 42.3419 3.74868C43.1409 3.74868 43.7915 3.85395 44.2936 4.06451C44.7957 4.27506 45.1655 4.58009 45.403 4.9796C45.6406 5.37372 45.7594 5.85151 45.7594 6.41299V12.2842H44.0992L43.9373 10.7779C43.6403 11.4096 43.2597 11.8469 42.7954 12.0898C42.3365 12.3274 41.8101 12.4461 41.2163 12.4461ZM41.856 11.1099C42.099 11.1099 42.3392 11.0668 42.5768 10.9804C42.8143 10.8886 43.0276 10.7671 43.2165 10.616C43.4109 10.4594 43.5648 10.2866 43.6781 10.0977C43.7969 9.90871 43.859 9.71165 43.8644 9.5065V8.18649L42.8359 8.20269C42.3284 8.20809 41.883 8.26207 41.4997 8.36465C41.1218 8.46723 40.8276 8.63189 40.617 8.85864C40.4065 9.07999 40.3012 9.37693 40.3012 9.74944C40.3012 10.1759 40.4496 10.5107 40.7466 10.7536C41.0435 10.9912 41.4133 11.1099 41.856 11.1099ZM51.1149 12.4461C50.3483 12.4461 49.6653 12.2788 49.066 11.9441C48.4722 11.6039 48.0052 11.1126 47.6651 10.4702C47.3249 9.82233 47.1549 9.0422 47.1549 8.1298C47.1549 7.2606 47.3141 6.49937 47.6327 5.84611C47.9566 5.18746 48.4128 4.67457 49.0013 4.30745C49.5951 3.93494 50.2997 3.74868 51.1149 3.74868C51.7681 3.74868 52.3431 3.87825 52.8398 4.13739C53.3365 4.39653 53.7333 4.75555 54.0302 5.21445C54.3326 5.67335 54.5134 6.19433 54.5728 6.7774H52.8965C52.8533 6.52366 52.7588 6.28341 52.6131 6.05666C52.4673 5.82452 52.2702 5.63826 52.0219 5.49789C51.7789 5.35212 51.482 5.27924 51.1311 5.27924C50.4994 5.27924 49.9892 5.51139 49.6005 5.97568C49.2118 6.43998 49.0175 7.15262 49.0175 8.11361C49.0175 8.99901 49.201 9.70355 49.5681 10.2272C49.9406 10.7509 50.4724 11.0128 51.1635 11.0128C51.509 11.0128 51.8059 10.9372 52.0543 10.786C52.3026 10.6294 52.497 10.4378 52.6373 10.211C52.7831 9.97889 52.8749 9.74674 52.9127 9.5146H54.5485C54.4999 10.0815 54.3245 10.5863 54.0221 11.029C53.7198 11.4717 53.3203 11.8199 52.8236 12.0736C52.3269 12.322 51.7573 12.4461 51.1149 12.4461ZM56.1375 12.2842V3.91064H58.0244V12.2842H56.1375ZM56.1051 2.44487V0.582282H58.0568V2.44487H56.1051ZM63.5377 12.4461C62.7387 12.4461 62.0422 12.2761 61.4483 11.936C60.8545 11.5904 60.3929 11.0964 60.0636 10.454C59.7396 9.81153 59.5777 9.0395 59.5777 8.1379C59.5777 7.2633 59.7369 6.49667 60.0555 5.83801C60.374 5.17936 60.8275 4.66647 61.416 4.29936C62.0098 3.93224 62.7198 3.74868 63.5458 3.74868C64.3448 3.74868 65.0385 3.92414 65.627 4.27506C66.2155 4.62598 66.669 5.12807 66.9875 5.78133C67.3114 6.43458 67.4734 7.22011 67.4734 8.1379C67.4734 8.98551 67.3195 9.73325 67.0118 10.3811C66.7095 11.0236 66.2641 11.5283 65.6756 11.8955C65.0925 12.2626 64.3799 12.4461 63.5377 12.4461ZM63.5458 10.948C63.9993 10.948 64.3718 10.8238 64.6633 10.5755C64.9603 10.3271 65.1816 9.98699 65.3274 9.55509C65.4732 9.12318 65.546 8.63189 65.546 8.08121C65.546 7.56833 65.4813 7.09593 65.3517 6.66403C65.2221 6.23213 65.0089 5.8866 64.7119 5.62746C64.4204 5.36292 64.0317 5.23065 63.5458 5.23065C63.0869 5.23065 62.7063 5.35212 62.4039 5.59507C62.107 5.83261 61.8857 6.16734 61.7399 6.59924C61.5941 7.02575 61.5212 7.51974 61.5212 8.08121C61.5212 8.5887 61.586 9.0611 61.7156 9.4984C61.8452 9.9303 62.0584 10.2812 62.3553 10.5512C62.6523 10.8157 63.0491 10.948 63.5458 10.948ZM62.7522 2.93076L64.4204 0.574183H66.5259L64.2098 2.93076H62.7522ZM69.0182 12.2842V3.91064H70.9456V5.10918C71.0752 4.89322 71.2506 4.68537 71.472 4.48561C71.6987 4.28586 71.9768 4.12389 72.3061 3.99972C72.6354 3.87555 73.0214 3.81346 73.4641 3.81346C73.9824 3.81346 74.4629 3.91604 74.9056 4.1212C75.3537 4.32635 75.7127 4.64758 75.9827 5.08488C76.258 5.52218 76.3957 6.08636 76.3957 6.7774V12.2842H74.4197V7.01225C74.4197 6.46157 74.2685 6.05397 73.9662 5.78942C73.6639 5.51948 73.2833 5.38451 72.8244 5.38451C72.5112 5.38451 72.2143 5.4385 71.9336 5.54648C71.6528 5.64906 71.4234 5.80832 71.2452 6.02427C71.0725 6.23482 70.9861 6.49937 70.9861 6.8179V12.2842H69.0182Z" fill="#2E2E2E"/>
<g clip-path="url(#clip0_36_4860)">
<path d="M5.87574 16.7014H0.209961V48.9079H5.87574V16.7014Z" fill="#2E2E2E"/>
<path d="M121.305 16.7014H114.573L100.131 39.2358H99.5749L100.131 19.3545V16.7014H94.4655V48.9079H100.663L121.305 16.7014Z" fill="#2E2E2E"/>
<path d="M57.7011 16.7014V48.9079H51.5008L37.0594 26.3736V48.9079H30.8616L16.425 26.3736V48.9079H10.7592V16.7014H16.9571L31.3936 39.2358H31.9476L31.3936 16.7014H37.5915L52.0354 39.2358H52.5893L52.0354 16.7014H57.7011Z" fill="#2E2E2E"/>
<path d="M81.5814 16.7014H70.8719C66.2654 18.3219 62.3003 22.6612 62.3003 32.8047C62.3003 42.9482 66.2654 47.2874 70.8719 48.9079H81.5814C86.1831 47.2874 90.153 42.9482 90.153 32.8047C90.153 22.6612 86.1831 18.3244 81.5814 16.7014ZM76.2266 44.0852C71.9384 44.0852 67.9661 42.7198 67.9661 32.8047C67.9661 22.8896 71.9384 21.5241 76.2266 21.5241C80.5149 21.5241 84.4872 22.8896 84.4872 32.8047C84.4872 42.7198 80.5149 44.0852 76.2266 44.0852Z" fill="#2E2E2E"/>
<path d="M158.631 40.5113C158.337 43.9103 156.291 47.3603 152.766 48.9079H144.636C143.667 48.4998 142.749 47.9507 141.927 47.2753C139.792 45.5235 138.562 43.111 138.562 40.6644H144.228C144.228 41.4078 144.7 42.2217 145.521 42.8972C146.415 43.6333 147.617 44.0877 148.648 44.0877C150.229 44.0706 151.276 43.4317 151.952 42.608C152.627 41.782 152.926 40.7713 152.989 40.0254C153.057 39.192 153.04 36.4223 149.811 35.8319L147.212 35.3557C142.039 34.4106 138.735 30.0763 139.189 24.8162C139.517 21.0479 141.665 18.0863 144.799 16.7039H152.737C153.689 17.146 154.561 17.7583 155.326 18.5236C157.044 20.2413 157.989 22.5227 157.989 24.9474H152.324C152.324 24.0363 151.966 23.1738 151.32 22.5276C150.679 21.8886 149.831 21.5314 148.925 21.5241H148.891C145.338 21.5582 144.891 24.6753 144.833 25.2973C144.685 27.0539 145.484 29.2745 148.232 29.7799L150.832 30.2561C155.863 31.1793 159.075 35.3946 158.633 40.5113H158.631Z" fill="#2E2E2E"/>
<path d="M188.515 16.7014V34.9743C188.515 42.4477 186.022 47.1173 181.087 48.9055H170.436C165.494 47.1149 163.002 42.4525 163.002 34.9743V16.7014H168.667V34.9743C168.667 43.3879 172.023 44.0852 175.762 44.0852C179.501 44.0852 182.849 43.3879 182.849 34.9743V16.7014H188.515Z" fill="#2E2E2E"/>
<path d="M209.445 35.6424L209.324 35.4505C212.346 33.6623 214.193 30.4577 214.465 27.3138C214.919 22.0441 211.61 17.6538 206.425 16.7014H193.784V48.9079H199.45L199.433 21.5241H205.449C209.205 22.3745 209.222 25.6884 209.137 26.7016C208.972 28.5723 207.652 31.7381 203.76 31.777H203.308V36.5997H203.325L211.212 48.9055H217.942L209.443 35.6424H209.445Z" fill="#2E2E2E"/>
<path d="M107.262 48.9079H113.992L128.436 26.3736H128.99L128.436 46.2548V48.9079H134.102V16.7014H127.901L107.262 48.9079Z" fill="#2E2E2E"/>
</g>
<defs>
<clipPath id="clip0_36_4860">
<rect width="217.79" height="32.2065" fill="white" transform="translate(0.209961 16.7014)"/>
</clipPath>
</defs>
</svg>
