<svg xmlns="http://www.w3.org/2000/svg" width="174" height="181" viewBox="0 0 174 181" version="1.1"><path d="M 18.240 27.279 C 8.197 37.300, -0.021 45.950, -0.021 46.500 C -0.022 47.050, 10.445 57.707, 23.239 70.183 L 46.500 92.865 23.006 116.435 L -0.489 140.005 18.629 159.123 L 37.748 178.241 60.922 155.121 C 73.668 142.404, 84.476 132, 84.939 132 C 85.402 132, 95.104 141.536, 106.499 153.192 C 117.895 164.847, 128.221 175.173, 129.447 176.137 C 131.664 177.881, 131.781 177.786, 150.088 159.414 C 160.215 149.251, 168.704 140.709, 168.953 140.432 C 169.616 139.694, 131.736 102, 130.332 102 C 129.679 102, 128.192 103.212, 127.027 104.693 L 124.908 107.386 141.196 123.696 L 157.484 140.007 144.441 153.049 L 131.399 166.092 111.199 146.447 C 100.090 135.643, 91 126.446, 91 126.009 C 91 125.572, 95.543 120.553, 101.095 114.857 C 112.257 103.405, 114 100.450, 114 92.982 C 114 85.931, 112.201 82.999, 100.650 71.224 L 90.570 60.949 111.024 40.476 L 131.477 20.004 144.741 33.240 L 158.004 46.476 140.475 64.025 L 122.946 81.574 125.932 84.435 L 128.919 87.296 148.959 67.312 C 159.982 56.320, 169 46.912, 169 46.403 C 169 45.150, 132.739 9, 131.482 9 C 130.933 9, 120.141 19.350, 107.500 32 L 84.516 55 61.500 32 C 48.841 19.350, 38.038 9.013, 37.492 9.029 C 36.946 9.044, 28.283 17.257, 18.240 27.279 M 24.749 32.751 C 17.737 39.778, 12 45.975, 12 46.522 C 12 47.069, 22.125 57.634, 34.500 70 C 46.875 82.366, 57 92.941, 57 93.500 C 57 94.059, 46.875 104.634, 34.500 117 C 22.125 129.366, 12.003 139.712, 12.006 139.992 C 12.013 140.648, 28.932 158.041, 34.142 162.747 L 38.134 166.354 70.633 133.927 C 88.507 116.092, 103.777 100.285, 104.566 98.800 C 105.355 97.314, 106 94.403, 106 92.329 C 106 88.711, 104.629 87.187, 71.749 54.267 L 37.497 19.974 24.749 32.751 M 170 164 C 170 164.733, 170.300 165.033, 170.667 164.667 C 171.033 164.300, 171.033 163.700, 170.667 163.333 C 170.300 162.967, 170 163.267, 170 164" stroke="none" fill="#fcfbfb" fill-rule="evenodd"/></svg>