<svg width="228" height="28" viewBox="0 0 228 28" fill="none" xmlns="http://www.w3.org/2000/svg">
<path d="M0.735302 7.85125V3.66003C0.735302 3.10855 1.10295 2.70414 1.65443 2.70414H5.33094C5.88242 2.70414 6.25007 3.10855 6.25007 3.66003V7.85125C6.25007 8.40273 5.88242 8.80714 5.33094 8.80714H1.65443C1.10295 8.80714 0.735302 8.40273 0.735302 7.85125ZM0.735302 24.5794V20.3514C0.735302 19.7999 1.10295 19.4323 1.65443 19.4323H5.33094C5.88242 19.4323 6.25007 19.7999 6.25007 20.3514V24.5794C6.25007 25.1308 5.88242 25.4985 5.33094 25.4985H1.65443C1.10295 25.4985 0.735302 25.1308 0.735302 24.5794ZM28.6959 22.3735V26.7853C28.6959 27.3735 28.2915 27.7412 27.7033 27.7412H23.9165C23.3282 27.7412 22.9238 27.3735 22.9238 26.7853V23.1088L18.5488 17.8514L14.1369 23.1088V26.7853C14.1369 27.3735 13.7325 27.7412 13.1443 27.7412H9.35748C8.76923 27.7412 8.36482 27.3735 8.36482 26.7853V22.3735C8.36482 21.9323 8.58541 21.4176 8.91629 21.0867L14.9458 14.1013L8.91629 7.07918C8.58541 6.7483 8.36482 6.23359 8.36482 5.7924V1.49089C8.36482 0.902646 8.76923 0.498231 9.35748 0.498231H13.1443C13.7325 0.498231 14.1369 0.902646 14.1369 1.49089V5.0571L18.5488 10.3145L22.9238 5.0571V1.49089C22.9238 0.902646 23.3282 0.498231 23.9165 0.498231H27.7033C28.2915 0.498231 28.6959 0.902646 28.6959 1.49089V5.7924C28.6959 6.23359 28.4753 6.7483 28.1812 7.07918L22.1517 14.1013L28.1812 21.0867C28.4753 21.4176 28.6959 21.9323 28.6959 22.3735ZM32.1618 13.1087L37.7133 1.45412C37.9339 0.902646 38.5221 0.534995 39.1104 0.534995H44.7722C45.3605 0.534995 45.9119 0.902646 46.1325 1.45412L51.6841 13.1087C51.9414 13.5866 52.0885 14.3219 52.0885 14.8366V26.6382C52.0885 27.2265 51.6841 27.6309 51.0958 27.6309H47.309C46.7208 27.6309 46.3163 27.2265 46.3163 26.6382V23.5132H37.5295V26.6382C37.5295 27.2265 37.1618 27.6309 36.5736 27.6309H32.75C32.1618 27.6309 31.7941 27.2265 31.7941 26.6382V14.8366C31.7941 14.3219 31.9412 13.5866 32.1618 13.1087ZM37.5295 18.1087H46.3163V14.2116L42.3457 6.04976H41.5369L37.5295 14.2116V18.1087ZM55.8614 0.461466H59.685C60.2732 0.461466 60.6408 0.865881 60.6408 1.45412V20.3514C60.6408 21.6382 61.5232 22.4838 62.81 22.4838H67.2586C68.5821 22.4838 69.4277 21.6382 69.4277 20.3514V1.45412C69.4277 0.865881 69.8321 0.461466 70.4204 0.461466H74.2072C74.7954 0.461466 75.1998 0.865881 75.1998 1.45412V20.1308C75.1998 24.8735 72.038 27.9985 67.2953 27.9985H62.7732C58.0305 27.9985 54.9055 24.8735 54.9055 20.1308V1.45412C54.9055 0.865881 55.2731 0.461466 55.8614 0.461466ZM79.2301 0.534995H97.6494C98.2377 0.534995 98.6421 0.939413 98.6421 1.52765V5.09387C98.6421 5.68211 98.2377 6.04976 97.6494 6.04976H84.0096V11.3807H96.9141C97.5023 11.3807 97.9068 11.7851 97.9068 12.3734V15.8293C97.9068 16.4175 97.5023 16.7852 96.9141 16.7852H84.0096V22.1161H97.6494C98.2377 22.1161 98.6421 22.5205 98.6421 23.1088V26.6382C98.6421 27.2265 98.2377 27.6309 97.6494 27.6309H79.2301C78.6419 27.6309 78.2374 27.2265 78.2374 26.6382V1.52765C78.2374 0.939413 78.6419 0.534995 79.2301 0.534995ZM101.959 1.45412C101.959 0.865881 102.364 0.461466 102.952 0.461466H106.444C106.922 0.461466 107.4 0.718821 107.658 1.12324L116.518 15.866V1.45412C116.518 0.865881 116.886 0.461466 117.474 0.461466H121.298C121.886 0.461466 122.253 0.865881 122.253 1.45412V26.7485C122.253 27.3368 121.886 27.7044 121.298 27.7044H117.768C117.327 27.7044 116.849 27.447 116.592 27.0426L107.731 12.3366V26.7485C107.731 27.3368 107.327 27.7044 106.739 27.7044H102.952C102.364 27.7044 101.959 27.3368 101.959 26.7485V1.45412ZM138.146 24.0279V26.9691C138.146 27.3735 137.889 27.6309 137.484 27.6309H135.389C134.984 27.6309 134.727 27.3735 134.727 26.9691V24.2117L124.763 5.9027C124.543 5.57181 124.396 5.02034 124.396 4.61592V1.71148C124.396 1.30706 124.653 1.04971 125.058 1.04971H127.153C127.558 1.04971 127.815 1.30706 127.815 1.71148V4.46886L137.778 22.7411C137.999 23.1088 138.146 23.6235 138.146 24.0279ZM141.424 1.04971H152.564C156.644 1.04971 159.439 3.80709 159.439 7.92478V20.7558C159.439 24.8735 156.644 27.6309 152.564 27.6309H141.424C141.019 27.6309 140.762 27.3735 140.762 26.9691V1.71148C140.762 1.30706 141.019 1.04971 141.424 1.04971ZM144.181 24.322H152.527C154.622 24.322 155.983 22.9249 155.983 20.8661V7.81449C155.983 5.71888 154.622 4.35857 152.527 4.35857H144.181V24.322ZM164.104 1.04971H181.494C181.899 1.04971 182.156 1.30706 182.156 1.71148V3.66003C182.156 4.06445 181.899 4.35857 181.494 4.35857H166.862V12.7042H180.759C181.163 12.7042 181.421 12.9616 181.421 13.366V15.2778C181.421 15.6822 181.163 15.9763 180.759 15.9763H166.862V24.322H181.494C181.899 24.322 182.156 24.5794 182.156 24.9838V26.9691C182.156 27.3735 181.899 27.6309 181.494 27.6309H164.104C163.7 27.6309 163.442 27.3735 163.442 26.9691V1.71148C163.442 1.30706 163.7 1.04971 164.104 1.04971ZM186.445 15.0204C186.261 14.6896 186.151 14.1748 186.151 13.8072V1.71148C186.151 1.30706 186.445 1.04971 186.85 1.04971H188.908C189.313 1.04971 189.607 1.30706 189.607 1.71148V14.1748L194.975 24.322H196.004L201.409 14.1748V1.71148C201.409 1.30706 201.666 1.04971 202.07 1.04971H204.166C204.57 1.04971 204.828 1.30706 204.828 1.71148V13.8072C204.828 14.1748 204.717 14.6896 204.57 15.0204L198.357 27.0059C198.173 27.3735 197.769 27.6309 197.364 27.6309H193.614C193.21 27.6309 192.842 27.3735 192.659 27.0059L186.445 15.0204ZM223.618 8.54979V7.22624C223.618 5.13063 222.221 3.77032 220.162 3.77032H215.383C213.324 3.77032 211.927 5.13063 211.927 7.22624V8.62332C211.927 9.9101 212.736 10.9763 213.912 11.3807L222.956 14.1013C225.493 14.8366 227.184 17.1161 227.184 19.7631V21.1235C227.184 25.2411 224.39 27.9985 220.309 27.9985H215.53C211.375 27.9985 208.618 25.2411 208.618 21.1235V19.7999C208.618 19.469 208.839 19.2484 209.169 19.2484H211.486C211.816 19.2484 212.037 19.469 212.037 19.7999V21.2337C212.037 23.2926 213.434 24.6897 215.53 24.6897H220.272C222.368 24.6897 223.728 23.2926 223.728 21.2337V19.8367C223.728 18.5867 222.956 17.4837 221.743 17.1161L212.699 14.3587C210.162 13.6234 208.508 11.3439 208.508 8.73361V7.33654C208.508 3.21885 211.265 0.461466 215.383 0.461466H220.162C224.28 0.461466 227.037 3.21885 227.037 7.33654V8.54979C227.037 8.88067 226.817 9.10126 226.486 9.10126H224.17C223.839 9.10126 223.618 8.88067 223.618 8.54979Z" fill="#0D0D0D"/>
</svg>
