<svg
  width="696"
  height="211"
  viewBox="0 0 696 211"
  fill="none"
  {...Astro.props}
  xmlns="http://www.w3.org/2000/svg"
>
  <path
    d="M2.2 2.23999H58.96C60.28 2.23999 61.12 3.08 61.12 4.39999V10.76C61.12 12.08 60.28 13.04 58.96 13.04H11.2V40.28H56.56C57.88 40.28 58.72 41.12 58.72 42.44V48.68C58.72 50 57.88 50.96 56.56 50.96H11.2V87.32C11.2 88.64 10.36 89.6 9.04 89.6H2.2C0.88 89.6 0.0400002 88.64 0.0400002 87.32V4.39999C0.0400002 3.08 0.88 2.23999 2.2 2.23999ZM131.783 76.52V87.32C131.783 88.64 130.943 89.48 129.623 89.48H122.783C121.463 89.48 120.623 88.64 120.623 87.32V78.08L100.343 50.96H81.9828V87.32C81.9828 88.64 81.1428 89.6 79.8228 89.6H72.9828C71.6628 89.6 70.8228 88.64 70.8228 87.32V4.39999C70.8228 3.08 71.6628 2.23999 72.9828 2.23999H112.103C123.863 2.23999 131.783 10.04 131.783 21.8V31.64C131.783 42.92 124.583 50.24 113.663 50.96L130.823 73.76C131.423 74.6 131.783 75.56 131.783 76.52ZM112.103 13.04H81.9828V40.16H112.103C117.263 40.16 120.503 36.8 120.503 31.76V21.44C120.503 16.28 117.263 13.04 112.103 13.04ZM144.51 67.76V22.76C144.51 9.32 153.63 0.319997 166.95 0.319997H183.03C196.47 0.319997 205.47 9.32 205.47 22.76V67.76C205.47 81.2 196.47 90.2 183.03 90.2H166.95C153.63 90.2 144.51 81.2 144.51 67.76ZM167.07 79.4H183.03C189.75 79.4 194.31 74.84 194.31 68.12V22.4C194.31 15.56 189.75 11.12 183.03 11.12H167.07C160.23 11.12 155.79 15.56 155.79 22.4V68.12C155.79 74.84 160.23 79.4 167.07 79.4ZM246.88 51.32L231.4 24.08V87.32C231.4 88.64 230.56 89.6 229.24 89.6H222.4C221.08 89.6 220.24 88.64 220.24 87.32V3.8C220.24 2.48 221.08 1.63999 222.4 1.63999H229C229.96 1.63999 230.92 2.23999 231.4 3.08L250.72 37.64L270.04 3.08C270.4 2.23999 271.36 1.63999 272.44 1.63999H278.92C280.24 1.63999 281.2 2.48 281.2 3.8V87.32C281.2 88.64 280.24 89.6 278.92 89.6H272.2C270.88 89.6 269.92 88.64 269.92 87.32V24.2L254.56 51.32C254.2 52.04 253.36 52.52 252.52 52.52H248.8C247.96 52.52 247.24 52.04 246.88 51.32ZM291.125 24.44V10.76C291.125 8.95999 292.325 7.64 294.125 7.64H306.125C307.925 7.64 309.125 8.95999 309.125 10.76V24.44C309.125 26.24 307.925 27.56 306.125 27.56H294.125C292.325 27.56 291.125 26.24 291.125 24.44ZM291.125 79.04V65.24C291.125 63.44 292.325 62.24 294.125 62.24H306.125C307.925 62.24 309.125 63.44 309.125 65.24V79.04C309.125 80.84 307.925 82.04 306.125 82.04H294.125C292.325 82.04 291.125 80.84 291.125 79.04ZM383.947 71.84V86.24C383.947 88.16 382.627 89.36 380.707 89.36H368.347C366.427 89.36 365.107 88.16 365.107 86.24V74.24L350.827 57.08L336.427 74.24V86.24C336.427 88.16 335.107 89.36 333.187 89.36H320.827C318.907 89.36 317.587 88.16 317.587 86.24V71.84C317.587 70.4 318.307 68.72 319.387 67.64L339.067 44.84L319.387 21.92C318.307 20.84 317.587 19.16 317.587 17.72V3.68C317.587 1.75999 318.907 0.439996 320.827 0.439996H333.187C335.107 0.439996 336.427 1.75999 336.427 3.68V15.32L350.827 32.48L365.107 15.32V3.68C365.107 1.75999 366.427 0.439996 368.347 0.439996H380.707C382.627 0.439996 383.947 1.75999 383.947 3.68V17.72C383.947 19.16 383.227 20.84 382.267 21.92L362.587 44.84L382.267 67.64C383.227 68.72 383.947 70.4 383.947 71.84ZM396.818 41.6L414.938 3.56C415.658 1.75999 417.578 0.559994 419.498 0.559994H437.978C439.898 0.559994 441.698 1.75999 442.418 3.56L460.538 41.6C461.378 43.16 461.858 45.56 461.858 47.24V85.76C461.858 87.68 460.538 89 458.618 89H446.258C444.338 89 443.018 87.68 443.018 85.76V75.56H414.338V85.76C414.338 87.68 413.138 89 411.218 89H398.738C396.818 89 395.618 87.68 395.618 85.76V47.24C395.618 45.56 396.098 43.16 396.818 41.6ZM414.338 57.92H443.018V45.2L430.058 18.56H427.418L414.338 45.2V57.92ZM475.732 0.319997H488.212C490.132 0.319997 491.332 1.63999 491.332 3.56V65.24C491.332 69.44 494.212 72.2 498.412 72.2H512.932C517.252 72.2 520.012 69.44 520.012 65.24V3.56C520.012 1.63999 521.332 0.319997 523.252 0.319997H535.612C537.532 0.319997 538.852 1.63999 538.852 3.56V64.52C538.852 80 528.532 90.2 513.052 90.2H498.292C482.812 90.2 472.612 80 472.612 64.52V3.56C472.612 1.63999 473.812 0.319997 475.732 0.319997ZM553.566 0.559994H613.686C615.606 0.559994 616.926 1.88 616.926 3.8V15.44C616.926 17.36 615.606 18.56 613.686 18.56H569.166V35.96H611.286C613.206 35.96 614.526 37.28 614.526 39.2V50.48C614.526 52.4 613.206 53.6 611.286 53.6H569.166V71H613.686C615.606 71 616.926 72.32 616.926 74.24V85.76C616.926 87.68 615.606 89 613.686 89H553.566C551.646 89 550.326 87.68 550.326 85.76V3.8C550.326 1.88 551.646 0.559994 553.566 0.559994ZM629.312 3.56C629.312 1.63999 630.632 0.319997 632.552 0.319997H643.952C645.512 0.319997 647.072 1.15999 647.912 2.48L676.832 50.6V3.56C676.832 1.63999 678.032 0.319997 679.952 0.319997H692.432C694.352 0.319997 695.552 1.63999 695.552 3.56V86.12C695.552 88.04 694.352 89.24 692.432 89.24H680.912C679.472 89.24 677.912 88.4 677.072 87.08L648.152 39.08V86.12C648.152 88.04 646.832 89.24 644.912 89.24H632.552C630.632 89.24 629.312 88.04 629.312 86.12V3.56ZM2.2 122.24H58.96C60.28 122.24 61.12 123.08 61.12 124.4V130.76C61.12 132.08 60.28 133.04 58.96 133.04H11.2V160.28H56.56C57.88 160.28 58.72 161.12 58.72 162.44V168.68C58.72 170 57.88 170.96 56.56 170.96H11.2V207.32C11.2 208.64 10.36 209.6 9.04 209.6H2.2C0.88 209.6 0.0400002 208.64 0.0400002 207.32V124.4C0.0400002 123.08 0.88 122.24 2.2 122.24ZM69.7428 187.76V142.76C69.7428 129.32 78.8628 120.32 92.1828 120.32H108.263C121.703 120.32 130.703 129.32 130.703 142.76V187.76C130.703 201.2 121.703 210.2 108.263 210.2H92.1828C78.8628 210.2 69.7428 201.2 69.7428 187.76ZM92.3028 199.4H108.263C114.983 199.4 119.543 194.84 119.543 188.12V142.4C119.543 135.56 114.983 131.12 108.263 131.12H92.3028C85.4628 131.12 81.0228 135.56 81.0228 142.4V188.12C81.0228 194.84 85.4628 199.4 92.3028 199.4ZM206.433 196.52V207.32C206.433 208.64 205.593 209.48 204.273 209.48H197.433C196.113 209.48 195.273 208.64 195.273 207.32V198.08L174.993 170.96H156.633V207.32C156.633 208.64 155.793 209.6 154.473 209.6H147.633C146.313 209.6 145.473 208.64 145.473 207.32V124.4C145.473 123.08 146.313 122.24 147.633 122.24H186.753C198.513 122.24 206.433 130.04 206.433 141.8V151.64C206.433 162.92 199.233 170.24 188.313 170.96L205.473 193.76C206.073 194.6 206.433 195.56 206.433 196.52ZM186.753 133.04H156.633V160.16H186.753C191.913 160.16 195.153 156.8 195.153 151.76V141.44C195.153 136.28 191.913 133.04 186.753 133.04ZM268.34 192.68V205.76C268.34 207.68 267.02 209 265.1 209H252.74C250.82 209 249.5 207.68 249.5 205.76V194.24L217.34 142.88C216.14 141.2 215.42 138.92 215.42 137V123.8C215.42 121.88 216.74 120.56 218.66 120.56H231.02C232.94 120.56 234.26 121.88 234.26 123.8V135.44L266.42 186.8C267.62 188.36 268.34 190.76 268.34 192.68ZM280.044 120.56H317.364C332.844 120.56 343.044 130.88 343.044 146.24V183.32C343.044 198.68 332.844 209 317.364 209H280.044C278.124 209 276.804 207.68 276.804 205.76V123.8C276.804 121.88 278.124 120.56 280.044 120.56ZM295.644 191H317.244C321.444 191 324.324 188.24 324.324 183.92V145.64C324.324 141.44 321.444 138.56 317.244 138.56H295.644V191ZM357.975 120.56H418.095C420.015 120.56 421.335 121.88 421.335 123.8V135.44C421.335 137.36 420.015 138.56 418.095 138.56H373.575V155.96H415.695C417.615 155.96 418.935 157.28 418.935 159.2V170.48C418.935 172.4 417.615 173.6 415.695 173.6H373.575V191H418.095C420.015 191 421.335 192.32 421.335 194.24V205.76C421.335 207.68 420.015 209 418.095 209H357.975C356.055 209 354.735 207.68 354.735 205.76V123.8C354.735 121.88 356.055 120.56 357.975 120.56ZM434.201 168.08C433.481 166.4 433.001 164.12 433.001 162.32V123.8C433.001 121.88 434.201 120.56 436.121 120.56H448.601C450.521 120.56 451.721 121.88 451.721 123.8V164.36L464.801 191H467.441L480.401 164.36V123.8C480.401 121.88 481.721 120.56 483.641 120.56H496.001C497.921 120.56 499.241 121.88 499.241 123.8V162.32C499.241 164.12 498.761 166.4 497.921 168.08L479.801 206.12C479.081 207.8 477.281 209 475.361 209H456.881C454.961 209 453.041 207.8 452.321 206.12L434.201 168.08ZM556.195 146.96V144.08C556.195 139.88 553.435 137 549.115 137H535.435C531.115 137 528.355 139.88 528.355 144.08V146.96C528.355 149.6 530.035 152 532.675 152.72L559.795 160.52C569.395 163.16 575.755 171.68 575.755 181.52V184.52C575.755 199.88 565.555 210.2 550.075 210.2H536.035C520.675 210.2 510.355 199.88 510.355 184.52V182.24C510.355 180.8 511.315 179.84 512.755 179.84H526.795C528.235 179.84 529.195 180.8 529.195 182.24V185.12C529.195 189.44 531.955 192.2 536.155 192.2H549.955C554.155 192.2 557.035 189.44 557.035 185.12V182.36C557.035 179.6 555.235 177.32 552.715 176.48L525.595 168.8C515.995 166.16 509.515 157.64 509.515 147.68V144.68C509.515 129.32 519.835 119 535.195 119H549.235C564.715 119 575.035 129.32 575.035 144.68V146.96C575.035 148.4 574.075 149.36 572.635 149.36H558.595C557.155 149.36 556.195 148.4 556.195 146.96Z"
    fill="#FCFCFC"></path>
</svg>
